<?xml version="1.0" encoding="iso-8859-1"?>
<!-- Generator: Adobe Illustrator 21.0.0, SVG Export Plug-In . SVG Version: 6.00 Build 0)  -->
<svg
    xmlns="http://www.w3.org/2000/svg"
    xmlns:xlink="http://www.w3.org/1999/xlink" version="1.1" id="Capa_1" x="0px" y="0px" viewBox="0 0 511.534 511.534" style="enable-background:new 0 0 511.534 511.534;" xml:space="preserve" width="512" height="512">
    <g>
        <path d="M189.194,346.083c12.34-13.925,18.145-32.499,15.933-50.971l-14.499-145.547c-0.382-3.836-3.608-6.757-7.463-6.757H97.688   c-3.854,0-7.081,2.921-7.463,6.757L83.319,218.9c0,0.005-0.001,0.01-0.001,0.015l-7.59,76.197   c-2.214,18.472,3.59,37.045,15.931,50.971c10.687,12.06,25.427,19.66,41.269,21.498v128.954H94.855c-4.143,0-7.5,3.358-7.5,7.5   c0,4.143,3.357,7.5,7.5,7.5h93.175c4.143,0,7.5-3.357,7.5-7.5c0-4.142-3.357-7.5-7.5-7.5h-40.104V367.58   C163.767,365.742,178.507,358.142,189.194,346.083z M102.884,336.133c-9.514-10.735-13.98-25.06-12.256-39.3   c0.007-0.053,0.013-0.107,0.018-0.159l6.923-69.5h19.188c4.143,0,7.5-3.357,7.5-7.5c0-4.143-3.357-7.5-7.5-7.5H99.063l5.415-54.365   h71.897l5.415,54.365h-35.034c-4.143,0-7.5,3.357-7.5,7.5c0,4.143,3.357,7.5,7.5,7.5h36.528l6.923,69.5   c0.005,0.053,0.011,0.105,0.018,0.158c1.725,14.241-2.743,28.566-12.257,39.302c-9.514,10.735-23.197,16.893-37.542,16.893   C126.082,353.026,112.397,346.869,102.884,336.133z" fill='#C5C5C5'/>
        <path d="M401.9,216.303c-11.126-23.583-17.007-49.876-17.007-76.036v-40.222h3.339c4.143,0,7.5-3.357,7.5-7.5V57.758   c0-4.143-3.357-7.5-7.5-7.5h-5.143V27.5c0-15.163-12.337-27.5-27.5-27.5h-22.82c-15.163,0-27.5,12.337-27.5,27.5v22.758h-5.143   c-4.143,0-7.5,3.357-7.5,7.5v34.787c0,4.143,3.357,7.5,7.5,7.5h3.339v40.222c0,26.162-5.881,52.455-17.006,76.036   c-34.369,72.851-34.369,85.784-34.369,90.034v165.597c0,21.836,15.763,39.6,35.137,39.6h113.905   c19.375,0,35.138-17.765,35.138-39.6V306.337C436.269,302.087,436.269,289.153,401.9,216.303z M315.066,176.184l24.656,18.949   c1.348,1.035,2.959,1.553,4.57,1.553c1.611,0,3.223-0.518,4.57-1.553l24.457-18.795c1.851,9.74,4.447,19.335,7.749,28.661   l-36.777,33.053l-36.948-33.206C310.637,195.518,313.223,185.924,315.066,176.184z M307.626,85.045V65.258h73.106v19.787H307.626z    M320.269,27.5c0-6.893,5.608-12.5,12.5-12.5h22.82c6.893,0,12.5,5.607,12.5,12.5v22.758h-47.82V27.5z M369.893,100.045v40.222   c0,6.352,0.338,12.709,0.97,19.041l-26.57,20.419l-26.782-20.581c0.621-6.278,0.954-12.582,0.954-18.879v-40.222H369.893z    M401.132,496.534H287.226c-11.104,0-20.137-11.036-20.137-24.6v-21.508h105.295c4.143,0,7.5-3.358,7.5-7.5   c0-4.143-3.357-7.5-7.5-7.5H267.09V331.625h24.706c4.143,0,7.5-3.358,7.5-7.5c0-4.143-3.357-7.5-7.5-7.5H267.09v-10.288   c0-3.242,2.375-18.857,32.936-83.634c0.473-1.003,0.922-2.019,1.378-3.031l37.876,34.042c1.426,1.281,3.22,1.922,5.014,1.922   c1.794,0,3.588-0.641,5.014-1.922l37.716-33.896c0.435,0.963,0.861,1.93,1.312,2.885c30.56,64.777,32.935,80.392,32.935,83.634   v10.288h-99.474c-4.143,0-7.5,3.357-7.5,7.5c0,4.142,3.357,7.5,7.5,7.5h99.474v103.801h-19.5c-4.142,0-7.5,3.357-7.5,7.5   c0,4.142,3.358,7.5,7.5,7.5h19.5v21.508C421.269,485.498,412.235,496.534,401.132,496.534z" fill='#C5C5C5'/>
    </g>
</svg>
