<svg height="487pt" viewBox="-3 0 487 487.78763" width="487pt"
    xmlns="http://www.w3.org/2000/svg">
    <path d="m480.398438 343.789062v-72c-.023438-22.082031-17.917969-39.976562-40-40h-32v-80c0-4.417968-3.582032-8-8-8h-48c-4.417969 0-8 3.582032-8 8v80h-72v-96c0-4.417968-3.582032-8-8-8h-48c-4.417969 0-8 3.582032-8 8v96h-72v-80c0-4.417968-3.582032-8-8-8h-48c-4.417969 0-8 3.582032-8 8v80h-32c-22.078126.023438-39.972657 17.917969-40 40v72c-.273438 17.167969 8.960937 33.085938 24 41.375v86.625h-16c-4.417969 0-8 3.582032-8 8 0 4.417969 3.582031 8 8 8h464c4.417968 0 8-3.582031 8-8 0-4.417968-3.582032-8-8-8h-16v-86.503906c14.808593-8.585937 23.945312-24.382812 24-41.496094zm-120-184h32v72h-32zm-136-16h32v88h-32zm-136 16h32v72h-32zm-72 112c0-13.257812 10.746093-24 24-24h400c13.257812 0 24 10.742188 24 24v72c-.027344 12.707032-7.527344 24.207032-19.144532 29.359376-12.09375 5.09375-26.0625 2.472656-35.484375-6.664063-6.007812-6.027344-9.375-14.191406-9.371093-22.695313v-32c-.039063-12.082031-6.894532-23.101562-17.710938-28.480468l-.488281-.265625c-1.28125-.605469-2.601563-1.121094-3.953125-1.542969-.796875-.265625-1.527344-.527344-2.320313-.71875-1.023437-.234375-2.058593-.417969-3.101562-.546875-.703125-.101563-1.375-.3125-2.089844-.367187-.382813 0-.75.054687-1.125.039062-.378906-.015625-.792969-.117188-1.210937-.117188-.886719 0-1.742188.183594-2.621094.253907-.882813.074219-1.816406.113281-2.714844.265625-1.382812.257812-2.75.609375-4.085938 1.046875-.722656.222656-1.457031.382812-2.160156.65625-1.492187.605469-2.933594 1.328125-4.3125 2.160156-.503906.289063-1.039062.496094-1.535156.800781-1.867188 1.210938-3.605469 2.613282-5.183594 4.183594-6.027344 5.984375-9.40625 14.136719-9.386718 22.632812v16c0 17.671876-14.324219 32-32 32-17.671876 0-32-14.328124-32-32v-16c-.039063-12.082031-6.894532-23.101562-17.710938-28.480468l-.488281-.265625c-1.28125-.605469-2.601563-1.121094-3.953125-1.542969-.796875-.265625-1.527344-.527344-2.320313-.71875-1.023437-.234375-2.058593-.417969-3.101562-.546875-.703125-.101563-1.375-.3125-2.089844-.367187-.382813 0-.75.054687-1.125.039062-.378906-.015625-.792969-.117188-1.210937-.117188-.886719 0-1.742188.183594-2.621094.253907-.882813.074219-1.816406.113281-2.714844.265625-1.378906.257812-2.742188.609375-4.078125 1.046875-.730469.222656-1.464844.382812-2.167969.65625-1.484375.605469-2.921875 1.324219-4.296875 2.152343-.511719.289063-1.054687.503907-1.550781.800782-1.867188 1.207031-3.605469 2.605468-5.183594 4.175781-6.03125 5.988281-9.410156 14.148437-9.386718 22.648437v48c0 17.671876-14.324219 32-32 32-17.671876 0-32-14.328124-32-32v-48c-.039063-12.082031-6.894532-23.101562-17.710938-28.480468l-.488281-.265625c-1.28125-.605469-2.601563-1.121094-3.953125-1.542969-.796875-.265625-1.527344-.527344-2.320313-.71875-1.023437-.234375-2.058593-.417969-3.101562-.546875-.703125-.101563-1.375-.3125-2.089844-.367187-.710937-.054688-1.535156-.078126-2.335937-.078126-17.671876 0-32 14.324219-32 32v32c.011718 8.476563-3.332032 16.613282-9.304688 22.628907-7.929688 7.632812-19.136719 10.8125-29.894531 8.480469-1.914063-.40625-3.789063-.984376-5.597657-1.734376-3.65625-1.613281-6.988281-3.875-9.832031-6.679687-6.007812-6.027344-9.375-14.191406-9.371093-22.695313zm24 200v-80.664062c.800781.132812 1.601562.167969 2.402343.261719l.613281.066406c7 .722656 14.074219-.097656 20.722657-2.402344 2.03125-.714843 4.015625-1.566406 5.933593-2.542969.410157-.199218.800782-.417968 1.226563-.640624 1.550781-.84375 3.058594-1.769532 4.511719-2.777344.464844-.316406.933594-.613282 1.390625-.949219 12.246093-8.910156 19.402343-23.210937 19.199219-38.351563v-32c-.007813-4.246093 1.683593-8.316406 4.695312-11.304687.800781-.792969 1.679688-1.503906 2.625-2.113281.167969-.101563.351562-.175782.519531-.269532.785157-.480468 1.605469-.890624 2.457031-1.226562.25-.09375.503907-.152344.753907-.230469.78125-.265625 1.582031-.464843 2.398437-.601562.382813-.0625.800782-.078125 1.175782-.121094.671874-.0625 1.347656-.085937 2.023437-.070313.503906.023438 1.007813.074219 1.503906.152344.601563.070313 1.199219.179688 1.785157.328125.199218.046875.382812.121094.574218.175781 6.972656 2.542969 11.578125 9.210938 11.488282 16.632813v46.648437c0 26.507813 21.492187 48 48 48 26.511718 0 48-21.492187 48-48v-48c0-5.433593 2.765624-10.492187 7.335937-13.425781.136719-.085937.296875-.144531.433594-.230469.8125-.496093 1.664062-.921874 2.550781-1.265624.226562-.085938.457031-.136719.679688-.207032.785156-.265625 1.585937-.476562 2.402343-.625.382813-.054687.800781-.078125 1.152344-.113281.671875-.066406 1.351563-.089844 2.03125-.070313.503906.023438 1.003906.074219 1.503906.152344.601563.070313 1.195313.179688 1.785157.328125.199218.046875.382812.121094.574218.175781 6.996094 2.523438 11.632813 9.195313 11.550782 16.632813v14.648437c0 26.507813 21.492187 48 48 48 26.511718 0 48-21.492187 48-48v-16c-.007813-4.246093 1.683593-8.316406 4.695312-11.304687.800781-.792969 1.679688-1.503906 2.625-2.113281.167969-.101563.351562-.175782.527344-.28125.78125-.472656 1.601562-.878906 2.449218-1.214844.25-.09375.511719-.152344.800782-.230469.769531-.265625 1.558594-.464843 2.359375-.601562.382812-.0625.800781-.078125 1.175781-.121094.671875-.0625 1.347656-.085937 2.023438-.070313.503906.023438 1.007812.074219 1.503906.152344.601562.070313 1.199218.179688 1.785156.328125.199219.046875.382812.121094.574219.175781 6.96875 2.546876 11.574219 9.214844 11.480469 16.632813v30.648437c-.011719 12.75 5.042968 24.984376 14.058593 34.007813 1.585938 1.546875 3.277344 2.984375 5.0625 4.304687.519531.375 1.054688.710938 1.601563 1.070313 1.34375.917969 2.703125 1.769531 4.117187 2.542969.5625.304687 1.121094.601562 1.6875.878906 1.613281.800781 3.265625 1.511719 4.953125 2.128906.335938.121094.664063.273438 1.007813.386719 4.390625 1.496094 8.96875 2.359375 13.601562 2.558594h.054688c2.230469.089843 4.464843.023437 6.6875-.199219l.800781-.089844c.800781-.085937 1.601562-.121094 2.402344-.253906v80.664062zm0 0" fill='#C5C5C5'/>
    <path d="m240.398438 111.789062c22.082031-.027343 39.976562-17.921874 40-40 0-19.203124-27.832032-60.472656-33.414063-68.546874-1.574219-2.042969-4.003906-3.242188-6.585937-3.242188-2.578126 0-5.011719 1.199219-6.582032 3.242188-5.585937 8.074218-33.417968 49.34375-33.417968 68.546874.027343 22.078126 17.921874 39.972657 40 40zm0-89.539062c11.511718 17.992188 24 40.800781 24 49.539062 0 13.253907-10.742188 24-24 24-13.253907 0-24-10.746093-24-24 0-8.738281 12.488281-31.546874 24-49.539062zm0 0" fill='#C5C5C5'/>
    <path d="m376.398438 127.789062c22.082031-.027343 39.976562-17.921874 40-40 0-19.203124-27.832032-60.472656-33.414063-68.546874-1.574219-2.042969-4.003906-3.242188-6.585937-3.242188-2.578126 0-5.011719 1.199219-6.582032 3.242188-5.585937 8.074218-33.417968 49.34375-33.417968 68.546874.027343 22.078126 17.921874 39.972657 40 40zm0-89.539062c11.511718 17.992188 24 40.800781 24 49.539062 0 13.253907-10.742188 24-24 24-13.253907 0-24-10.746093-24-24 0-8.738281 12.488281-31.546874 24-49.539062zm0 0" fill='#C5C5C5'/>
    <path d="m104.398438 127.789062c22.082031-.027343 39.976562-17.921874 40-40 0-19.203124-27.832032-60.472656-33.414063-68.546874-1.574219-2.042969-4.003906-3.242188-6.585937-3.242188-2.578126 0-5.011719 1.199219-6.582032 3.242188-5.585937 8.074218-33.417968 49.34375-33.417968 68.546874.027343 22.078126 17.921874 39.972657 40 40zm0-89.539062c11.511718 17.992188 24 40.800781 24 49.539062 0 13.253907-10.742188 24-24 24-13.253907 0-24-10.746093-24-24 0-8.738281 12.488281-31.546874 24-49.539062zm0 0" fill='#C5C5C5'/>
</svg>